# xmcd CD database file
#
# Track frame offsets:
#	200
#	13112
#	28217
#	46225
#	61390
#	78912
#	95312
#	107495
#	122065
#	142370
#	161447
#	181905
#
# Disc length: 2640 seconds
#
# Revision: 0
# Processed by: cddbd v1.4b41PL3 Copyright (c) Steve Scherf et al.
# Submitted via: CDex 1.40Beta5
#
DISCID=9a0a4e0c
DTITLE=The Keepers - Every Dog is a Star
DYEAR=1997
DGENRE=Blues
TTITLE0=A Hard Year
TTITLE1=A Dozen Diamond Mines
TTITLE2=Don't Wait Too Long
TTITLE3=Pretty Little One
TTITLE4='62 Lark
TTITLE5=Ghosts
TTITLE6=Tennessee
TTITLE7=Pills and Powders
TTITLE8=Morning Wednesday
TTITLE9=Angel Wings
TTITLE10=Rainbow
TTITLE11=When The World Was Fresh and Warm
EXTD=YEAR: 1997 ID3G:   0
EXTT0=
EXTT1=
EXTT2=
EXTT3=
EXTT4=
EXTT5=
EXTT6=
EXTT7=
EXTT8=
EXTT9=
EXTT10=
EXTT11=
PLAYORDER=
